HIERARCHY
ROOT Pelvis
{
	OFFSET 0.000000 0.000000 0.000000
	CHANNELS 6 Xposition Yposition Zposition Xrotation Yrotation Zrotation
	JOINT LeftUpLeg_virtual
	{
		OFFSET 0.000000 0.000000 0.000000
		CHANNELS 3 Xrotation Yrotation Zrotation
		JOINT LeftUpLeg
		{
			OFFSET 18.735201 -5.666702 -4.541200
			CHANNELS 3 Xrotation Yrotation Zrotation
			JOINT LeftLeg
			{
				OFFSET -0.021200 -31.938179 0.493100
				CHANNELS 3 Xrotation Yrotation Zrotation
				JOINT LeftFoot
				{
					OFFSET 0.021200 -31.938179 -4.336299
					CHANNELS 3 Xrotation Yrotation Zrotation
					JOINT LeftToeBase
					{
						OFFSET 0.943001 -26.722000 15.023500
						CHANNELS 3 Xrotation Yrotation Zrotation
						End Site
						{
							OFFSET 0 0 0
						}
					}
				}
			}
		}
	}
	JOINT RightUpLeg_virtual
	{
		OFFSET 0.000000 0.000000 0.000000
		CHANNELS 3 Xrotation Yrotation Zrotation
		JOINT RightUpLeg
		{
			OFFSET -18.735201 -5.666702 -4.541200
			CHANNELS 3 Xrotation Yrotation Zrotation
			JOINT RightLeg
			{
				OFFSET 0.018946 -31.938133 0.493100
				CHANNELS 3 Xrotation Yrotation Zrotation
				JOINT RightFoot
				{
					OFFSET -0.018946 -31.938126 -4.336299
					CHANNELS 3 Xrotation Yrotation Zrotation
					JOINT RightToeBase
					{
						OFFSET -0.943001 -26.722004 15.023500
						CHANNELS 3 Xrotation Yrotation Zrotation
						End Site
						{
							OFFSET 0 0 0
						}
					}
				}
			}
		}
	}
	JOINT Hips_virtual
	{
		OFFSET 0.000000 0.000000 0.000000
		CHANNELS 3 Xrotation Yrotation Zrotation
		JOINT Hips
		{
			OFFSET -0.000000 -0.000000 -0.000000
			CHANNELS 3 Xrotation Yrotation Zrotation
			JOINT Spine
			{
				OFFSET 0.000000 10.199997 -0.299500
				CHANNELS 3 Xrotation Yrotation Zrotation
				JOINT Spine1
				{
					OFFSET 0.000000 11.900002 -1.516600
					CHANNELS 3 Xrotation Yrotation Zrotation
					JOINT Spine2
					{
						OFFSET 0.000000 13.600006 -2.842500
						CHANNELS 3 Xrotation Yrotation Zrotation
						JOINT Neck_virtual
						{
							OFFSET 0.000000 0.000000 0.000000
							CHANNELS 3 Xrotation Yrotation Zrotation
							JOINT Neck
							{
								OFFSET 0.000000 9.624100 -2.890100
								CHANNELS 3 Xrotation Yrotation Zrotation
								JOINT Head
								{
									OFFSET 0.000000 14.068802 -1.351900
									CHANNELS 3 Xrotation Yrotation Zrotation
									End Site
									{
										OFFSET 0 0 0
									}
								}
							}
						}
						JOINT LeftShoulder_virtual
						{
							OFFSET 0.000000 0.000000 0.000000
							CHANNELS 3 Xrotation Yrotation Zrotation
							JOINT LeftShoulder
							{
								OFFSET 15.263000 10.923401 -0.547700
								CHANNELS 3 Xrotation Yrotation Zrotation
								JOINT LeftArm
								{
									OFFSET 25.438599 -2.830597 -13.032500
									CHANNELS 3 Xrotation Yrotation Zrotation
									JOINT LeftForeArm
									{
										OFFSET 29.960503 0.000000 0.000000
										CHANNELS 3 Xrotation Yrotation Zrotation
										JOINT LeftHand
										{
											OFFSET 27.849251 0.000000 0.000000
											CHANNELS 3 Xrotation Yrotation Zrotation
											End Site
											{
												OFFSET 0 0 0
											}
										}
									}
								}
							}
						}
						JOINT RightShoulder_virtual
						{
							OFFSET 0.000000 0.000000 0.000000
							CHANNELS 3 Xrotation Yrotation Zrotation
							JOINT RightShoulder
							{
								OFFSET -15.263000 10.923401 -0.547700
								CHANNELS 3 Xrotation Yrotation Zrotation
								JOINT RightArm
								{
									OFFSET -25.438599 -2.830597 -13.032500
									CHANNELS 3 Xrotation Yrotation Zrotation
									JOINT RightForeArm
									{
										OFFSET -29.960503 0.000000 0.000000
										CHANNELS 3 Xrotation Yrotation Zrotation
										JOINT RightHand
										{
											OFFSET -27.849251 0.000000 0.000000
											CHANNELS 3 Xrotation Yrotation Zrotation
											End Site
											{
												OFFSET 0 0 0
											}
										}
									}
								}
							}
						}
					}
				}
			}
		}
	}
}
MOTION
Frames: 12
Frame Time: 0.03333333
-2.957963 83.420792 0.349831 0.000000 0.000000 0.000000 0.252343 -44.161234 4.792364 -45.415427 -3.411785 19.463126 43.010101 -5.542463 -5.358601 -8.188871 -2.784839 -17.150895 0.000000 0.000000 0.000000 2.452072 -49.548945 -4.175970 -30.504503 -16.629030 -25.284339 43.911051 7.030480 -1.100643 -11.927441 3.294244 14.905734 0.000000 0.000000 0.000000 1.371378 -26.646853 1.083004 1.827831 -35.638995 3.047229 13.761030 -1.224481 -4.276556 8.107656 0.698889 -3.837980 0.000000 0.000000 0.000000 2.391500 3.798497 -2.035367 -1.159339 3.007785 -0.046857 0.000000 0.000000 0.000000 3.256657 -0.128489 -3.234237 -1.273636 -9.530578 -8.087894 -15.843005 -2.646744 -41.988270 -2.378374 -35.933639 -2.420432 0.000000 0.000000 0.000000 4.336338 0.970970 -2.804268 1.255176 3.040638 -6.620989 -40.576040 -10.970546 39.397474 -43.523413 67.297738 38.793012 0.000000 0.000000 0.000000 
-2.816792 83.587921 -0.446205 0.000000 0.000000 0.000000 1.245760 -44.409053 5.483009 -44.097037 -3.562452 19.623031 43.022730 -5.868648 -5.820402 -7.661119 -2.978713 -18.294201 0.000000 0.000000 0.000000 2.860497 -49.436639 -3.952304 -29.805675 -16.818043 -25.061822 44.523442 7.497004 -1.531855 -11.466137 4.052280 14.538053 0.000000 0.000000 0.000000 -0.642419 -26.119583 -0.389738 6.418489 -35.255582 5.720162 13.513186 -1.688126 -5.434870 8.352059 0.677228 -4.329613 0.000000 0.000000 0.000000 2.862710 3.356903 -2.970261 -1.051823 3.164733 -0.071638 0.000000 0.000000 0.000000 3.221171 -0.347860 -3.752891 -0.958281 -8.704028 -7.179959 -15.708844 -0.991008 -42.766956 -1.354405 -34.443100 -2.207863 0.000000 0.000000 0.000000 3.897240 0.934428 -3.098470 1.272736 1.210521 -6.728796 -40.901324 -15.881400 36.690458 -52.839231 66.984171 48.383035 0.000000 0.000000 0.000000 
-1.926476 83.624939 2.186022 0.000000 0.000000 0.000000 0.992368 -44.944895 5.692871 -44.136430 -3.964205 19.693254 43.555590 -5.633432 -6.295034 -6.964980 -2.533991 -19.020861 0.000000 0.000000 0.000000 3.487634 -48.397669 -3.602878 -28.937824 -16.687096 -24.732581 45.946976 8.062909 -2.403392 -10.551649 5.195071 13.699701 0.000000 0.000000 0.000000 2.050540 -25.094344 2.372075 3.382237 -34.834593 8.041528 13.552244 -2.201218 -5.408972 7.774751 0.555627 -4.101762 0.000000 0.000000 0.000000 3.356307 3.284821 -3.078107 -1.427103 3.404999 -0.115324 0.000000 0.000000 0.000000 3.280853 0.002108 -3.888628 -1.923818 -8.855157 -7.558783 -14.440237 1.837018 -44.761706 -0.977862 -29.534250 -2.968480 0.000000 0.000000 0.000000 4.126674 1.180408 -3.176576 1.545285 0.696201 -6.954912 -39.307052 -15.550719 39.896433 -64.540882 67.648878 59.930586 0.000000 0.000000 0.000000 
-3.342991 84.034630 1.120174 0.000000 0.000000 0.000000 0.379337 -44.103662 4.865609 -44.317508 -3.598495 19.155628 43.869803 -5.380677 -6.231119 -6.625885 -2.322408 -18.862662 0.000000 0.000000 0.000000 5.082319 -47.422943 -2.569362 -27.398319 -16.807274 -24.106360 45.548308 8.365133 -2.250432 -10.936811 5.339100 14.042009 0.000000 0.000000 0.000000 0.451846 -23.260819 1.133187 5.537039 -34.483327 5.926144 12.772672 -1.934318 -5.318859 8.699984 0.898163 -4.847757 0.000000 0.000000 0.000000 3.071898 3.095312 -3.351332 -1.540672 3.455810 -0.090200 0.000000 0.000000 0.000000 3.215001 -0.074767 -4.389258 -2.931731 -8.512568 -6.861958 -17.141499 2.103578 -43.336915 -2.042571 -30.059266 -2.834204 0.000000 0.000000 0.000000 4.062074 1.533600 -3.112585 0.518434 0.022875 -5.640939 -42.152690 -20.067226 40.925660 -75.164360 65.753439 71.402278 0.000000 0.000000 0.000000 
-2.646353 84.128624 0.770782 0.000000 0.000000 0.000000 0.841307 -44.398190 5.730876 -43.724306 -4.021556 19.659955 43.763617 -5.009297 -6.349393 -6.417577 -1.944173 -18.879886 0.000000 0.000000 0.000000 6.099493 -47.783334 -2.402327 -26.167232 -17.178318 -24.288055 46.970740 8.567919 -2.448138 -10.261581 5.648338 13.989447 0.000000 0.000000 0.000000 2.423186 -20.803559 1.475943 5.943172 -34.168281 8.040220 13.912569 -2.156087 -5.718872 8.912647 0.453839 -4.665677 0.000000 0.000000 0.000000 3.874344 2.535450 -3.542150 -1.768269 3.450084 0.149352 0.000000 0.000000 0.000000 3.366639 -0.662007 -4.880414 -3.530256 -8.348871 -6.453528 -16.248924 2.024802 -42.611143 -1.951549 -29.250784 -3.121709 0.000000 0.000000 0.000000 4.724572 1.307404 -2.712883 1.380038 -0.495348 -4.592379 -38.910297 -23.942499 41.732333 -76.591576 63.509394 74.620213 0.000000 0.000000 0.000000 
-2.370942 83.532822 1.689444 0.000000 0.000000 0.000000 2.040935 -45.324381 6.934175 -42.946198 -4.414539 20.386627 43.528591 -5.101316 -6.323859 -6.406519 -2.061251 -18.984705 0.000000 0.000000 0.000000 6.433223 -46.225194 -2.196045 -25.329360 -16.901597 -23.765973 46.536848 8.279690 -2.069011 -10.306469 5.222669 14.211282 0.000000 0.000000 0.000000 -1.127032 -26.407338 0.931544 4.190993 -30.525037 3.518448 11.539063 -1.812156 -6.224875 8.803540 0.856630 -5.161544 0.000000 0.000000 0.000000 3.077295 2.952794 -3.541245 -1.535925 3.419512 0.371524 0.000000 0.000000 0.000000 3.630190 -0.017084 -5.287771 -2.775675 -7.651198 -5.343136 -19.559143 1.944241 -43.932897 -2.717732 -32.340713 -3.969040 0.000000 0.000000 0.000000 4.099363 1.798186 -2.881728 0.387781 1.185572 -5.698546 -47.431337 -22.433681 40.991090 -75.489170 61.057834 73.948573 0.000000 0.000000 0.000000 
-3.370995 83.443657 1.857134 0.000000 0.000000 0.000000 1.194377 -46.158070 6.215027 -43.820182 -4.584717 19.912180 42.952833 -4.983022 -6.392239 -7.136271 -1.781398 -18.993586 0.000000 0.000000 0.000000 5.455582 -45.418156 -2.920450 -26.075000 -16.358969 -23.934170 47.484875 8.298496 -1.788890 -10.118696 5.007070 14.676222 0.000000 0.000000 0.000000 -0.236432 -25.897511 1.825536 4.377657 -31.885823 5.950544 10.239318 -0.354389 -5.756226 8.688107 0.780991 -4.919479 0.000000 0.000000 0.000000 2.739978 2.867595 -3.388518 -1.649534 3.185362 0.571532 0.000000 0.000000 0.000000 3.491209 0.213403 -5.441846 -2.767204 -8.747235 -4.467184 -18.514083 2.990349 -42.301984 -2.491885 -32.153641 -3.903370 0.000000 0.000000 0.000000 3.491844 2.059647 -2.676526 -0.300431 0.479624 -4.888529 -52.300418 -27.265669 41.521874 -72.724357 55.760927 71.846446 0.000000 0.000000 0.000000 
-2.033202 82.983437 1.201195 0.000000 0.000000 0.000000 0.934182 -45.766973 6.884487 -44.419162 -4.886625 20.670191 44.305064 -5.251058 -6.442056 -6.296001 -2.028413 -19.376099 0.000000 0.000000 0.000000 6.173567 -45.257434 -1.859244 -25.832636 -16.596661 -23.214449 47.000444 8.354777 -1.711425 -10.915888 4.883652 14.701924 0.000000 0.000000 0.000000 -0.487408 -28.131907 1.641687 3.047144 -26.907052 5.484236 10.454800 -1.203947 -4.791462 8.257367 0.435435 -4.831824 0.000000 0.000000 0.000000 2.047324 2.127216 -3.807370 -2.290099 2.781913 0.599568 0.000000 0.000000 0.000000 3.530780 -0.351207 -5.867341 -3.703520 -7.596914 -4.455221 -18.856472 4.776610 -43.194553 -3.510152 -33.905605 -4.369435 0.000000 0.000000 0.000000 3.706235 1.835260 -2.563099 -1.347141 -0.928725 -3.254863 -54.592917 -34.088719 42.208537 -75.666625 50.813920 74.849571 0.000000 0.000000 0.000000 
-1.667028 82.594345 0.567568 0.000000 0.000000 0.000000 0.021443 -45.256769 5.910012 -45.004072 -4.613181 20.071342 43.999863 -5.300812 -6.153198 -6.523854 -2.183058 -18.998844 0.000000 0.000000 0.000000 5.822678 -43.945669 -2.085229 -26.016368 -16.122520 -23.146248 47.041883 7.888635 -1.522346 -11.142783 4.286103 14.601800 0.000000 0.000000 0.000000 0.919439 -27.936362 2.641326 4.300353 -26.099893 6.126608 10.614625 -1.347110 -5.017572 8.603521 0.324777 -4.777292 0.000000 0.000000 0.000000 1.949943 1.744586 -3.928012 -2.264574 2.463378 0.600600 0.000000 0.000000 0.000000 3.950319 -0.380588 -6.179714 -3.273284 -8.112392 -4.649553 -19.783003 3.730874 -43.393534 -3.699022 -35.009924 -4.787576 0.000000 0.000000 0.000000 3.396682 1.472228 -2.228078 -1.442445 -1.945577 -2.284178 -55.676724 -35.893204 43.858079 -74.603998 47.986874 74.776570 0.000000 0.000000 0.000000 
-1.914405 82.213020 0.045073 0.000000 0.000000 0.000000 -0.342900 -45.644344 5.243313 -45.482687 -4.472659 19.623137 46.306794 -5.305189 -6.089440 -4.832523 -2.316668 -19.001499 0.000000 0.000000 0.000000 6.094673 -42.990918 -2.587633 -25.391377 -15.834586 -23.544736 48.620603 7.572083 -1.572201 -10.281159 4.077523 14.420532 0.000000 0.000000 0.000000 1.871059 -28.073575 3.331410 5.256039 -25.987470 6.263079 10.654464 -1.704414 -4.544483 8.591867 0.067106 -4.532775 0.000000 0.000000 0.000000 1.651824 1.212850 -3.821180 -2.407174 2.160889 0.637052 0.000000 0.000000 0.000000 4.112763 -0.634642 -6.116378 -3.023074 -8.143815 -4.807077 -17.743512 3.620111 -42.400001 -3.235858 -34.934177 -4.492185 0.000000 0.000000 0.000000 3.827819 1.311806 -1.682452 -1.386496 -2.390313 -1.071483 -56.480651 -38.033751 43.507584 -72.203166 46.164296 72.789066 0.000000 0.000000 0.000000 
-1.438213 82.025444 0.758238 0.000000 0.000000 0.000000 -1.064412 -45.807593 4.731593 -46.281683 -4.479772 19.407967 47.446992 -5.289109 -5.917472 -4.022502 -2.437209 -18.833407 0.000000 0.000000 0.000000 5.839257 -41.653526 -3.041310 -25.519004 -15.333174 -23.779158 49.319375 7.270291 -1.600438 -10.237029 3.753320 14.197346 0.000000 0.000000 0.000000 2.328591 -26.549183 3.490284 6.304294 -26.268715 7.304703 10.920590 -1.949982 -4.857870 8.660867 -0.025874 -4.545766 0.000000 0.000000 0.000000 1.637541 0.804163 -3.902254 -2.323357 1.849078 0.657869 0.000000 0.000000 0.000000 4.378480 -0.806431 -6.301346 -2.944155 -8.335977 -5.489031 -17.551621 2.773857 -42.750762 -2.821832 -36.605682 -4.366909 0.000000 0.000000 0.000000 3.849297 1.216885 -1.749706 -1.358129 -2.414693 -0.920760 -58.406054 -38.088284 41.536952 -70.801468 45.274479 70.671216 0.000000 0.000000 0.000000 
-1.265050 81.295074 0.075514 0.000000 0.000000 0.000000 -1.506398 -46.413646 4.867752 -46.809315 -4.869217 19.582168 48.359911 -5.514767 -5.672444 -3.320910 -2.842336 -18.709302 0.000000 0.000000 0.000000 5.585785 -40.473375 -3.378571 -25.586514 -14.914635 -23.935471 49.609607 6.658091 -1.303587 -10.167893 3.036909 14.169705 0.000000 0.000000 0.000000 2.551677 -26.997853 3.818022 6.477118 -23.825845 7.095757 11.049474 -2.041733 -4.669760 8.751277 -0.196367 -4.462482 0.000000 0.000000 0.000000 1.673643 0.384080 -3.973534 -2.368430 1.451394 0.644830 0.000000 0.000000 0.000000 4.569281 -0.711868 -6.261710 -2.904692 -8.050881 -5.734958 -14.668212 1.913341 -43.004613 -2.218543 -36.886512 -4.224025 0.000000 0.000000 0.000000 4.337543 1.170104 -1.680496 -1.354877 -2.250557 -1.176281 -58.581057 -39.864262 41.461144 -66.471203 42.513430 66.742887 0.000000 0.000000 0.000000 
